<svg width="146" height="124" viewBox="0 0 146 124" fill="none" xmlns="http://www.w3.org/2000/svg">
<g opacity="0.3">
<circle cx="143.768" cy="1.23214" r="2.23214" transform="rotate(90 143.768 1.23214)" fill="#47BC67"/>
<circle cx="103.588" cy="1.23214" r="2.23214" transform="rotate(90 103.588 1.23214)" fill="#47BC67"/>
<circle cx="63.4124" cy="1.23214" r="2.23214" transform="rotate(90 63.4124 1.23214)" fill="#47BC67"/>
<circle cx="23.2327" cy="1.23214" r="2.23214" transform="rotate(90 23.2327 1.23214)" fill="#47BC67"/>
<circle cx="123.678" cy="1.23214" r="2.23214" transform="rotate(90 123.678 1.23214)" fill="#47BC67"/>
<circle cx="83.4983" cy="1.23214" r="2.23214" transform="rotate(90 83.4983 1.23214)" fill="#47BC67"/>
<circle cx="43.3225" cy="1.23214" r="2.23214" transform="rotate(90 43.3225 1.23214)" fill="#47BC67"/>
<circle cx="3.14286" cy="1.23214" r="2.23214" transform="rotate(90 3.14286 1.23214)" fill="#47BC67"/>
<circle cx="143.768" cy="61.5" r="2.23214" transform="rotate(90 143.768 61.5)" fill="#47BC67"/>
<circle cx="103.588" cy="61.5" r="2.23214" transform="rotate(90 103.588 61.5)" fill="#47BC67"/>
<circle cx="63.4124" cy="61.5" r="2.23214" transform="rotate(90 63.4124 61.5)" fill="#47BC67"/>
<circle cx="23.2327" cy="61.5" r="2.23214" transform="rotate(90 23.2327 61.5)" fill="#47BC67"/>
<circle cx="123.678" cy="61.5" r="2.23214" transform="rotate(90 123.678 61.5)" fill="#47BC67"/>
<circle cx="83.4983" cy="61.5" r="2.23214" transform="rotate(90 83.4983 61.5)" fill="#47BC67"/>
<circle cx="43.3225" cy="61.5" r="2.23214" transform="rotate(90 43.3225 61.5)" fill="#47BC67"/>
<circle cx="3.14286" cy="61.5" r="2.23214" transform="rotate(90 3.14286 61.5)" fill="#47BC67"/>
<circle cx="143.768" cy="121.768" r="2.23214" transform="rotate(90 143.768 121.768)" fill="#47BC67"/>
<circle cx="103.588" cy="121.768" r="2.23214" transform="rotate(90 103.588 121.768)" fill="#47BC67"/>
<circle cx="63.4124" cy="121.768" r="2.23214" transform="rotate(90 63.4124 121.768)" fill="#47BC67"/>
<circle cx="23.2327" cy="121.768" r="2.23214" transform="rotate(90 23.2327 121.768)" fill="#47BC67"/>
<circle cx="123.678" cy="121.768" r="2.23214" transform="rotate(90 123.678 121.768)" fill="#47BC67"/>
<circle cx="83.4983" cy="121.768" r="2.23214" transform="rotate(90 83.4983 121.768)" fill="#47BC67"/>
<circle cx="43.3225" cy="121.768" r="2.23214" transform="rotate(90 43.3225 121.768)" fill="#47BC67"/>
<circle cx="3.14286" cy="121.768" r="2.23214" transform="rotate(90 3.14286 121.768)" fill="#47BC67"/>
<circle cx="143.768" cy="21.3214" r="2.23214" transform="rotate(90 143.768 21.3214)" fill="#47BC67"/>
<circle cx="103.588" cy="21.3214" r="2.23214" transform="rotate(90 103.588 21.3214)" fill="#47BC67"/>
<circle cx="63.4124" cy="21.3214" r="2.23214" transform="rotate(90 63.4124 21.3214)" fill="#47BC67"/>
<circle cx="23.2327" cy="21.3214" r="2.23214" transform="rotate(90 23.2327 21.3214)" fill="#47BC67"/>
<circle cx="123.678" cy="21.3214" r="2.23214" transform="rotate(90 123.678 21.3214)" fill="#47BC67"/>
<circle cx="83.4983" cy="21.3214" r="2.23214" transform="rotate(90 83.4983 21.3214)" fill="#47BC67"/>
<circle cx="43.3225" cy="21.3214" r="2.23214" transform="rotate(90 43.3225 21.3214)" fill="#47BC67"/>
<circle cx="3.14286" cy="21.3214" r="2.23214" transform="rotate(90 3.14286 21.3214)" fill="#47BC67"/>
<circle cx="143.768" cy="81.5893" r="2.23214" transform="rotate(90 143.768 81.5893)" fill="#47BC67"/>
<circle cx="103.588" cy="81.5893" r="2.23214" transform="rotate(90 103.588 81.5893)" fill="#47BC67"/>
<circle cx="63.4124" cy="81.5893" r="2.23214" transform="rotate(90 63.4124 81.5893)" fill="#47BC67"/>
<circle cx="23.2327" cy="81.5893" r="2.23214" transform="rotate(90 23.2327 81.5893)" fill="#47BC67"/>
<circle cx="123.678" cy="81.5893" r="2.23214" transform="rotate(90 123.678 81.5893)" fill="#47BC67"/>
<circle cx="83.4983" cy="81.5893" r="2.23214" transform="rotate(90 83.4983 81.5893)" fill="#47BC67"/>
<circle cx="43.3225" cy="81.5893" r="2.23214" transform="rotate(90 43.3225 81.5893)" fill="#47BC67"/>
<circle cx="3.14286" cy="81.5893" r="2.23214" transform="rotate(90 3.14286 81.5893)" fill="#47BC67"/>
<circle cx="143.768" cy="41.4107" r="2.23214" transform="rotate(90 143.768 41.4107)" fill="#47BC67"/>
<circle cx="103.588" cy="41.4107" r="2.23214" transform="rotate(90 103.588 41.4107)" fill="#47BC67"/>
<circle cx="63.4124" cy="41.4107" r="2.23214" transform="rotate(90 63.4124 41.4107)" fill="#47BC67"/>
<circle cx="23.2327" cy="41.4107" r="2.23214" transform="rotate(90 23.2327 41.4107)" fill="#47BC67"/>
<circle cx="123.678" cy="41.4107" r="2.23214" transform="rotate(90 123.678 41.4107)" fill="#47BC67"/>
<circle cx="83.4983" cy="41.4107" r="2.23214" transform="rotate(90 83.4983 41.4107)" fill="#47BC67"/>
<circle cx="43.3225" cy="41.4107" r="2.23214" transform="rotate(90 43.3225 41.4107)" fill="#47BC67"/>
<circle cx="3.14286" cy="41.4107" r="2.23214" transform="rotate(90 3.14286 41.4107)" fill="#47BC67"/>
<circle cx="143.768" cy="101.679" r="2.23214" transform="rotate(90 143.768 101.679)" fill="#47BC67"/>
<circle cx="103.588" cy="101.679" r="2.23214" transform="rotate(90 103.588 101.679)" fill="#47BC67"/>
<circle cx="63.4124" cy="101.679" r="2.23214" transform="rotate(90 63.4124 101.679)" fill="#47BC67"/>
<circle cx="23.2327" cy="101.679" r="2.23214" transform="rotate(90 23.2327 101.679)" fill="#47BC67"/>
<circle cx="123.678" cy="101.679" r="2.23214" transform="rotate(90 123.678 101.679)" fill="#47BC67"/>
<circle cx="83.4983" cy="101.679" r="2.23214" transform="rotate(90 83.4983 101.679)" fill="#47BC67"/>
<circle cx="43.3225" cy="101.679" r="2.23214" transform="rotate(90 43.3225 101.679)" fill="#47BC67"/>
<circle cx="3.14286" cy="101.679" r="2.23214" transform="rotate(90 3.14286 101.679)" fill="#47BC67"/>
</g>
</svg>
